<?xml version="1.0" encoding="UTF-8"?>
<svg width="621.3" height="1001.5" data-name="Ebene 1" version="1.1" viewBox="0 0 621.3 1001.5" xmlns="http://www.w3.org/2000/svg" xmlns:xlink="http://www.w3.org/1999/xlink">
 <defs>
  <style>.cls-1 {
        fill: #3a3938;
      }

      .cls-1, .cls-2, .cls-3, .cls-4, .cls-5, .cls-6, .cls-7, .cls-8, .cls-9, .cls-10, .cls-11, .cls-12, .cls-13, .cls-14, .cls-15, .cls-16, .cls-17, .cls-18, .cls-19, .cls-20, .cls-21, .cls-22, .cls-23, .cls-24, .cls-25, .cls-26, .cls-27, .cls-28, .cls-29, .cls-30, .cls-31, .cls-32, .cls-33, .cls-34 {
        stroke-miterlimit: 10;
      }

      .cls-1, .cls-2, .cls-3, .cls-5, .cls-7, .cls-9, .cls-10, .cls-11, .cls-13, .cls-14, .cls-15, .cls-17, .cls-18, .cls-19, .cls-20, .cls-21, .cls-22, .cls-23, .cls-25, .cls-26, .cls-27, .cls-28, .cls-30, .cls-31, .cls-32, .cls-33, .cls-34 {
        stroke: #000;
      }

      .cls-1, .cls-4, .cls-6, .cls-8, .cls-12, .cls-16, .cls-17, .cls-18, .cls-20, .cls-23, .cls-24, .cls-25, .cls-28, .cls-29, .cls-32 {
        stroke-width: 1.44px;
      }

      .cls-2 {
        stroke-width: 1.4px;
      }

      .cls-2, .cls-27 {
        fill: #6a6b6a;
      }

      .cls-35, .cls-36, .cls-37, .cls-38, .cls-39 {
        stroke-width: 0px;
      }

      .cls-35, .cls-4, .cls-6, .cls-12, .cls-24 {
        fill: #979696;
      }

      .cls-36 {
        fill: url(#Unbenannter_Verlauf_352);
        filter: url(#drop-shadow-1);
      }

      .cls-3 {
        stroke-width: .72px;
      }

      .cls-3, .cls-19, .cls-28 {
        fill: #fff;
      }

      .cls-4 {
        stroke: url(#Unbenannter_Verlauf_219-7);
      }

      .cls-5, .cls-10, .cls-15, .cls-31, .cls-34 {
        stroke-width: .83px;
      }

      .cls-5, .cls-21 {
        fill: #fbfbfb;
      }

      .cls-6 {
        stroke: url(#Unbenannter_Verlauf_219-5);
      }

      .cls-7 {
        fill: #52c3f1;
        stroke-width: 1.83px;
      }

      .cls-8 {
        fill: #606060;
        stroke: url(#Unbenannter_Verlauf_219);
      }

      .cls-9, .cls-11, .cls-13, .cls-14, .cls-21 {
        stroke-width: .82px;
      }

      .cls-9, .cls-34 {
        fill: #9c9d9d;
      }

      .cls-10, .cls-14 {
        fill: #c8c8c8;
      }

      .cls-11, .cls-15 {
        fill: #999a9a;
      }

      .cls-12 {
        stroke: url(#Unbenannter_Verlauf_219-6);
      }

      .cls-13, .cls-31 {
        fill: #b3b3b3;
      }

      .cls-16 {
        fill: #dedede;
        stroke: url(#Unbenannter_Verlauf_219-3);
      }

      .cls-17 {
        fill: #010200;
      }

      .cls-18 {
        fill: #6c6d6d;
      }

      .cls-19 {
        stroke-width: 1.55px;
      }

      .cls-20 {
        fill: #000e1f;
      }

      .cls-22 {
        fill: #2f302e;
        stroke-width: 2.03px;
      }

      .cls-23 {
        fill: url(#Unbenannter_Verlauf_354);
      }

      .cls-24 {
        stroke: url(#Unbenannter_Verlauf_219-4);
      }

      .cls-25 {
        fill: #545453;
      }

      .cls-26 {
        stroke-width: .28px;
      }

      .cls-26, .cls-32 {
        fill: #1d1d1b;
      }

      .cls-27, .cls-33 {
        stroke-width: 1.18px;
      }

      .cls-29 {
        fill: #8d8e8e;
        stroke: url(#Unbenannter_Verlauf_219-2);
      }

      .cls-30 {
        fill: #85bae6;
        stroke-width: 1.57px;
      }

      .cls-38 {
        fill: #54c3ea;
      }

      .cls-39 {
        fill: url(#Unbenannter_Verlauf_352-2);
        filter: url(#drop-shadow-2);
      }

      .cls-33 {
        fill: #7a7a7a;
      }</style>
  <linearGradient id="Unbenannter_Verlauf_354" x1="424.13" x2="514.15" y1="293.71" y2="875.82" data-name="Unbenannter Verlauf 354" gradientUnits="userSpaceOnUse">
   <stop stop-color="#949494" offset="0"/>
   <stop stop-color="#1d1d1b" offset=".28"/>
  </linearGradient>
  <radialGradient id="Unbenannter_Verlauf_219" cx="551.87" cy="542.4" r="72.21" data-name="Unbenannter Verlauf 219" gradientUnits="userSpaceOnUse">
   <stop stop-color="#1d1d1b" offset="0"/>
   <stop stop-color="#1d1d1b" offset=".39"/>
   <stop stop-color="#1d1d1b" offset="1"/>
  </radialGradient>
  <radialGradient id="Unbenannter_Verlauf_219-2" cx="540.34" cy="541.69" r="67.42" data-name="Unbenannter Verlauf 219" gradientTransform="matrix(.95 0 0 1 36.76 .18)" xlink:href="#Unbenannter_Verlauf_219"/>
  <radialGradient id="Unbenannter_Verlauf_219-3" cx="545.35" cy="531.63" r="57.91" data-name="Unbenannter Verlauf 219" gradientTransform="matrix(.96 0 0 1.09 26.72 -37.68)" xlink:href="#Unbenannter_Verlauf_219"/>
  <radialGradient id="Unbenannter_Verlauf_219-4" cx="536.43" cy="516.83" r="19.27" data-name="Unbenannter Verlauf 219" gradientTransform="matrix(1,0,0,1.13,0,-66.87)" xlink:href="#Unbenannter_Verlauf_219"/>
  <radialGradient id="Unbenannter_Verlauf_219-5" cx="566.12" cy="509.14" r="20.92" data-name="Unbenannter Verlauf 219" gradientTransform="matrix(.96 0 0 1.08 20.79 -34.56)" xlink:href="#Unbenannter_Verlauf_219"/>
  <linearGradient id="Unbenannter_Verlauf_352" x1="557.73" x2="576.29" y1="513.72" y2="513.72" data-name="Unbenannter Verlauf 352" gradientUnits="userSpaceOnUse">
   <stop stop-color="#01a8d4" offset="0"/>
   <stop stop-color="#0babd7" offset=".07"/>
   <stop stop-color="#2ab5e2" offset=".32"/>
   <stop stop-color="#40bdea" offset=".56"/>
   <stop stop-color="#4dc1ef" offset=".79"/>
   <stop stop-color="#52c3f1" offset="1"/>
  </linearGradient>
  <filter id="drop-shadow-1" filterUnits="userSpaceOnUse">
   <feOffset dx="-.46" dy=".46"/>
   <feGaussianBlur result="blur"/>
   <feFlood flood-opacity=".44"/>
   <feComposite in2="blur" operator="in"/>
   <feComposite in="SourceGraphic"/>
  </filter>
  <linearGradient id="Unbenannter_Verlauf_352-2" x1="528.07" x2="544.04" y1="516.83" y2="516.83" data-name="Unbenannter Verlauf 352" xlink:href="#Unbenannter_Verlauf_352"/>
  <filter id="drop-shadow-2" filterUnits="userSpaceOnUse">
   <feOffset dx="-.46" dy=".46"/>
   <feGaussianBlur result="blur-2"/>
   <feFlood flood-opacity=".44"/>
   <feComposite in2="blur-2" operator="in"/>
   <feComposite in="SourceGraphic"/>
  </filter>
  <radialGradient id="Unbenannter_Verlauf_219-6" cx="540.82" cy="591.11" r="12.08" data-name="Unbenannter Verlauf 219" gradientTransform="matrix(1,0,0,1.13,0,-76.48)" xlink:href="#Unbenannter_Verlauf_219"/>
  <radialGradient id="Unbenannter_Verlauf_219-7" cx="558.69" cy="588.25" r="13.09" data-name="Unbenannter Verlauf 219" gradientTransform="matrix(.96 0 0 1.08 20.79 -44.32)" xlink:href="#Unbenannter_Verlauf_219"/>
 </defs>
 <g transform="translate(-117.42 .74084)">
  <polygon class="cls-17" points="708.23 415.99 537.73 331.9 165.18 381.99 346.57 462.27"/>
  <path class="cls-17" d="m682.99 614.16 17.45-2.99 36.4-190.12-388.38 52.68 31.34 176.13-1.46-.28-31.02-177.09-211.76-93.34 43.03 179.86 34.5 18.08-40.19 318.17c-.64 5.08 3.31 9.57 8.43 9.57 4.05 0 7.53-2.85 8.33-6.82l60.56-301.45 122.12 64.01-7.18 329.4c-.12 5.6 4.45 10.17 10.05 10.03 5.04-.12 9.17-4.03 9.56-9.06l25.65-330.1 113.51-19.44 42.2 193.16c.76 3.48 3.84 5.97 7.41 5.97 4.61 0 8.16-4.08 7.51-8.65l-27.81-195.49 84.52-14.47 74.61 345.63c.86 3.97 4.01 6.85 7.79 7.13 5.56.41 10.09-4.85 9.3-10.78l-46.47-349.73z"/>
 </g>
 <polygon class="cls-32" transform="translate(-117.42 .74084)" points="561.62 0 134.77 47.57 162.87 62.57 593.24 17.39"/>
 <polygon class="cls-20" transform="translate(-117.42 .74084)" points="146.26 382.95 162.87 62.57 134.77 47.57 118.17 373.37"/>
 <polygon class="cls-1" transform="translate(-117.42 .74084)" points="146.26 382.95 547.57 329.79 593.24 17.39 162.87 62.57"/>
 <polygon class="cls-28" transform="translate(-117.42 .74084)" points="531.77 312.55 574.87 34.32 177.39 75.98 165.9 359.96" fill="#fff"/>
 <polygon class="cls-25" transform="translate(-117.42 .74084)" points="543.74 38.15 510.22 301.54 532.24 313.03 575.34 34.32"/>
 <polygon class="cls-18" transform="translate(-117.42 .74084)" points="510.22 301.54 166.63 347.05 165.9 359.96 531.77 312.55"/>
 <polygon class="cls-23" transform="translate(-117.42 .74084)" points="346.92 472.5 146.26 382.95 553.32 330.75 735.29 419.82" fill="url(#Unbenannter_Verlauf_354)"/>
 <g transform="translate(-117.42 .74084)">
  <path class="cls-3" d="m595.35 396.33c0 22.32-63 44.05-142.94 44.05s-142.62-20.97-142.62-43.29 62.68-37.55 142.62-37.55 142.94 14.47 142.94 36.79z" fill="#f9f9f9"/>
  <ellipse class="cls-19" cx="452.75" cy="393.43" rx="142.97" ry="39.92" fill="#fff"/>
  <ellipse class="cls-26" cx="452.75" cy="393.43" rx="25.65" ry="7.16"/>
  <path class="cls-37" d="m509.43 389.55h.89c1.48-.08 2.37-.59 2.37-1l-.3-.17c-4.45-4.44-15.13-8.2-29.66-10.46-.59-.17-1.48-.25-2.08-.33-1.48-.25-3.26-.08-4.15.33s-.3.92 1.19 1.17c.89.08 1.48.17 2.08.25 13.05 2.01 22.54 5.36 26.69 9.46v.17c.3.33 1.78.59 2.97.59z"/>
  <path class="cls-37" d="m478.59 370.97c-1.48-.08-2.67-.25-4.15-.33-1.48-.17-3.26.17-3.56.59-.59.42.59.92 2.08 1 1.19.08 2.67.25 3.86.33 4.45.42 8.9.92 13.05 1.59 18.09 2.85 31.14 7.45 36.78 13.06 1.78 1.67 2.67 3.35 2.97 5.11.3.5 1.48.84 3.26.84 1.48-.08 2.97-.42 2.97-.92-.3-1.84-1.48-3.68-3.26-5.52-6.23-6.03-20.46-10.96-40.04-13.98-4.45-.75-9.19-1.34-13.94-1.76z"/>
  <path class="cls-37" d="m569.94 384.28h.89c1.48-.08 2.37-.59 2.08-1.17-8.3-8.12-26.99-15.15-52.2-19.75-4.75-.84-9.49-1.59-14.53-2.26-1.78-.17-3.56 0-4.15.42-.59.5 0 1 1.48 1.17 4.75.67 9.19 1.34 13.64 2.18 24.02 4.44 41.82 11.13 49.83 18.83.59.33 1.78.59 2.97.59z"/>
  <path class="cls-37" d="m507.06 368.12c-1.48-.25-3.26-.17-4.15.25s-.59.92.89 1.17c18.98 3.26 33.22 8.03 40.93 13.98 3.86 2.93 5.93 6.03 6.23 9.12 0 .5 1.19.84 2.97.84s2.97-.42 3.26-.84c0-3.35-2.37-6.61-6.52-9.71-8.3-6.28-23.43-11.38-43.6-14.81z"/>
  <path class="cls-37" d="m347.79 393.9c0 3.35 2.37 6.61 6.52 9.71 8.3 6.28 23.43 11.38 43.6 14.81.3.08.89.08 1.48.08 1.19 0 2.08-.17 2.67-.42.89-.42.59-.92-.89-1.17-18.98-3.26-33.22-8.03-40.93-13.98-3.86-2.93-5.93-6.03-6.23-9.12 0-.5-1.19-.84-2.97-.84s-2.97.42-3.26.92z"/>
  <path class="cls-37" d="m394.65 396.91c-1.48.08-2.37.59-2.37 1.09l.3.17c4.45 4.44 15.13 8.2 29.66 10.46.59.17 1.48.25 2.08.33.59.08.89.08 1.48.08 1.19 0 2.08-.17 2.67-.5.59-.42 0-.92-1.48-1.17-.59-.08-1.19-.17-1.78-.25-13.05-2.01-22.54-5.36-26.69-9.46v-.17c-.59-.42-2.37-.75-3.86-.59z"/>
  <path class="cls-37" d="m453.72 353.51h-.28c22.77.05 45.35 1.69 66.08 4.82 33.22 5.02 57.24 13.39 67.92 23.6 10.68 10.13 6.82 20.92-10.97 30.21-17.8 9.37-47.45 16.15-83.64 19.17-13.35 1.09-26.99 1.67-40.34 1.67-23.13 0-46.27-1.67-67.03-4.85-33.22-5.02-57.24-13.39-67.92-23.6-3.89-3.69-5.79-7.46-5.8-11.21 0 .09-.02.17-.02.26 0 22.13 63.58 40.07 142 40.07s142-17.94 142-40.07-63.58-40.07-142-40.07z"/>
  <path class="cls-37" d="m426.09 415.58c1.48.08 2.67.25 4.15.33h.89c1.48 0 2.67-.25 2.97-.59.59-.5-.59-.92-2.08-1.09-1.19-.08-2.67-.25-3.86-.33-4.45-.42-8.9-.92-13.05-1.59-18.09-2.85-31.14-7.45-36.78-13.06-1.78-1.67-2.67-3.35-2.97-5.11-.3-.5-1.78-.84-3.26-.84-1.78.08-2.97.42-2.97.92.3 1.84 1.48 3.68 3.26 5.52 6.23 6.03 20.46 10.96 39.74 14.06 4.45.75 9.19 1.34 13.94 1.76z"/>
  <path class="cls-37" d="m384.57 422.94c4.75.84 9.49 1.59 14.53 2.26.3.08.89.08 1.19.08 1.19 0 2.08-.17 2.67-.5.59-.42 0-.92-1.48-1.09-4.75-.67-9.19-1.34-13.64-2.18-24.02-4.44-41.82-11.13-49.83-18.83-.59-.5-2.37-.75-3.86-.59s-2.67.67-2.08 1.09c8.6 8.12 26.99 15.15 52.5 19.75z"/>
  <g stroke="#000">
   <path class="cls-34" d="m503.07 399.17v13.25s4.4 4.05 8.64 4.92c4.25.87 14.24.53 14.24.53l115.85-4.08s14.24-.97 18.9-5.54 3.84-5.34 3.84-5.34l.92-14.68s-.08-1.55-.86-2.84-1.48-1.95-1.48-1.95z" fill="#9c9d9d"/>
   <path class="cls-31" d="m637.42 376.62-122.97 13.09s-10.54 1.17-11.37 8.36c-.82 7.19 36.02 5.4 36.02 5.4l109.14-3.79s16.36-2.06 16.3-12.84c-.08-13.32-27.12-10.21-27.12-10.21z"/>
   <path class="cls-5" d="m636.6 378.94-119.82 12.95s-9.04.34-9.04 6.18c0 4.59 25.09 3.5 25.09 3.5l114.41-4.21s13.32-1.15 13.46-10.73-24.1-7.69-24.1-7.69z"/>
   <ellipse class="cls-15" cx="643.3" cy="386.92" rx="7.86" ry="4.4"/>
   <ellipse class="cls-10" cx="643.3" cy="386.92" rx="3.34" ry="1.87"/>
   <path class="cls-9" d="m387.99 389.1v13.13s-4.43 4.02-8.7 4.88-14.34.52-14.34.52l-116.65-4.04s-14.34-.96-19.03-5.49-3.86-5.29-3.86-5.29l-.93-14.55s.08-1.54.87-2.82 1.49-1.93 1.49-1.93z"/>
   <path class="cls-13" d="m252.71 366.75 123.82 12.97s10.62 1.16 11.44 8.28c.83 7.13-36.26 5.35-36.26 5.35l-109.89-3.76s-16.48-2.05-16.41-12.73c.08-13.2 27.3-10.12 27.3-10.12z"/>
   <path class="cls-21" d="m253.54 369.04 120.65 12.83s9.1.34 9.1 6.12c0 4.55-25.27 3.47-25.27 3.47l-115.2-4.17s-13.41-1.14-13.55-10.64 24.27-7.62 24.27-7.62z" fill="#fff"/>
   <ellipse class="cls-11" cx="246.8" cy="376.95" rx="7.91" ry="4.36"/>
   <ellipse class="cls-14" cx="246.8" cy="376.95" rx="3.36" ry="1.85"/>
  </g>
  <g stroke="#000">
   <path class="cls-8" d="m496.55 493.09v116.32c0 10.64 8.38 18.81 18.19 17.52l62.41-8.22c12.38-1.63 22.24-12.25 23.04-25.09l6.95-111.99c.91-14.73-9.99-25.3-24.14-23.73l-62.98 6.96c-12.83 1.42-23.47 14.39-23.47 28.23z" fill="#606060"/>
   <path class="cls-29" d="m503.07 495.78v107.03c0 9.63 8.33 18.62 16.82 17.71l54.56-7.46c11.08-1.21 19.96-10.82 20.69-22.74l6.49-105.46c.85-13.76-9-23.54-21.73-21.96l-56.48 6.99c-11.15 1.38-20.35 13.27-20.35 25.88z" fill="#8d8e8e"/>
   <path class="cls-16" d="m509.81 498.35-.89 99.25c-.08 9 7.2 17.44 14.71 16.62l48.21-6.78c9.78-1.09 17.65-10.05 18.33-21.16l6-97.63c.78-12.64-7.81-21.64-18.94-20.24l-49.42 6.22c-9.76 1.23-17.91 12.12-18.01 23.72z" fill="#dedede"/>
   <g fill="#979696">
    <path class="cls-24" d="m546.77 494.63-21.34 2.14c-1.7.17-2.99 1.6-2.99 3.3v35.66c0 1.96 1.68 3.49 3.63 3.3l20.48-1.94c1.67-.16 2.96-1.54 3-3.22l.86-35.86c.05-2-1.66-3.58-3.65-3.38z"/>
    <path class="cls-6" d="m578.13 491.3-23.52 2.35c-1.65.16-2.91 1.53-2.96 3.19l-.91 36.14c-.05 1.97 1.63 3.54 3.59 3.35l22.58-2.11c1.62-.15 2.89-1.47 2.97-3.1l1.85-36.38c.1-2.01-1.61-3.63-3.61-3.43z"/>
    <path class="cls-12" d="m547.16 577.51-13.08 1.31c-1.04.1-1.83.98-1.83 2.02v21.85c0 1.2 1.03 2.14 2.23 2.02l12.55-1.19c1.03-.1 1.82-.95 1.84-1.98l.53-21.97c.03-1.22-1.02-2.19-2.24-2.07z"/>
    <path class="cls-4" d="m566.37 575.47-14.41 1.44c-1.01.1-1.79.94-1.81 1.95l-.55 22.14c-.03 1.21 1 2.17 2.2 2.05l13.83-1.29c1-.09 1.77-.9 1.82-1.9l1.13-22.29c.06-1.23-.98-2.23-2.21-2.1z"/>
   </g>
  </g>
 </g>
 <path class="cls-35" d="m474.99 539.51s-.9 10.67-7.13 10.67c-2.49 0-4.06 1.07-5.05 2.36-1.78 2.32-1.67 5.55-.09 8.01.83 1.29 2.26 1.96 4.06 2.09 4.01.28 6.66 8.42 6.66 8.42"/>
 <g transform="translate(-117.42 .74084)">
  <g stroke="#000">
   <path class="cls-33" d="m692.19 501.09-24.77 3.87c-3.9.61-6.56-1.79-5.9-5.4l7.46-40.98c.73-4.03 4.71-7.68 8.84-8.1l26.2-2.67c3.88-.4 6.27 2.46 5.38 6.35l-9.12 39.59c-.8 3.49-4.41 6.76-8.09 7.34z"/>
   <path class="cls-22" d="m722.4 464.17-32.62.63c-.75-.32-1.56-.5-2.42-.5-4.87 0-9.62 5.36-10.69 11.96-1.07 6.59 1.93 12.07 6.75 12.25.88.03 1.75-.12 2.61-.42l30.93 2.54 5.45-26.47z"/>
   <path class="cls-27" d="m710.01 477.01c-1.23 7.62 2.23 13.95 7.8 14.16 5.66.21 11.35-5.95 12.63-13.78 1.29-7.84-2.36-14.21-8.07-14.21s-11.12 6.2-12.36 13.83z"/>
   <path class="cls-2" d="m713.43 477.82c-1.47 9.06 2.65 16.6 9.27 16.84 6.73.25 13.5-7.08 15.02-16.39 1.53-9.33-2.81-16.9-9.6-16.9s-13.23 7.37-14.7 16.45z"/>
   <path class="cls-30" d="m339.27 503.17c.77 8.24-3.12 14.75-8.69 14.85s-11.14-6.3-12.38-14.64c-1.3-8.73 2.57-16.11 8.67-16.11s11.6 7.28 12.4 15.9z"/>
   <path class="cls-7" d="m334.21 503.77c.88 9.75-3.58 17.45-9.95 17.58-6.42.13-12.77-7.46-14.19-17.33-1.49-10.33 2.95-19.07 9.94-19.07s13.29 8.62 14.21 18.82z"/>
  </g>
  <path class="cls-38" d="m182.11 235.33 3.79-58.98 40-4.22-.35 4.88 3.92-.42-.35 4.86 3.9-.43-1.42 19.33-3.89.46-.35 4.82-3.9.47-.35 4.82-27.68 3.4-1.29 19.41-4 .53 1.61-24.52 31.56-3.81.35-4.83 3.9-.46 1.38-18.98-3.92.43.35-4.87-35.75 3.85-3.49 53.72-4.03.53zm9.96-30.28 1.29-19.66 27.91-3.07-.35 4.87 3.93-.44-.7 9.7-3.92.46-.34 4.84zm4.52-5.58 23.5-2.73.66-9.33-23.54 2.64-.63 9.42z"/>
  <path class="cls-38" d="m287.02 165.68-.4 4.75-45.48 4.9.36-4.85zm-48.75 48.12 19.07-2.39 2.24-28.56-19.15 2.15.36-4.83 22.96-2.52-3.01 38.01-22.83 2.9.36-4.77zm-.62 9.55 45.14-5.84-.39 4.66-45.11 5.93zm29.88-46.12 18.71-2.06-.39 4.73-14.93 1.67-2.29 28.42 14.86-1.86-.39 4.68-18.6 2.37z"/>
  <path class="cls-38" d="m294.42 164.9 11.1-1.17-.41 4.71 3.55-.38-.41 4.7 3.63-.4-.41 4.68 3.61-.4-.41 4.66 3.6-.41-.42 4.65 3.58-.42-.42 4.63 3.57-.42 2.54-27.88 3.57-.38-3.39 37.05-3.55.44.42-4.61-3.62.44.42-4.63-3.58.42.42-4.64-3.59.42.41-4.66-3.61.41.41-4.67-3.62.41.41-4.69-3.58.39.41-4.7-7.32.79-4.4 51.46-3.65.48 4.77-56.28zm6.17 12.95 3.65-.41-.44 5.1 3.63-.42-.41 4.67 3.62-.42-.41 4.66 3.6-.43-.41 4.64 3.59-.43-.41 4.62 3.57-.44-.41 4.5 3.65-.46-.43 4.7 3.55-.45-.42 4.58 3.45-.45 4.68-50.72 3.55-.37-5.13 55.2-7.05.93.42-4.57-3.54.46.42-4.59-3.56.45.42-4.6-3.63.45.41-4.62-3.59.44.41-4.63-3.6.43.41-4.65-3.62.43.41-4.66-3.57.42-2.83 32.52-3.63.48 3.65-42.37z"/>
  <path class="cls-38" d="m344 205.03-3.49.44 1.72-18.28 3.5-.41-1.73 18.25 3.48-.44-.43 4.53 27.37-3.54.45-4.48 3.37-.43 4.12-40.59-37.95 4.09.44-4.63 41.36-4.36-4.61 45.14-3.36.43-.45 4.47-3.37.44-.44 4.4-27.36 3.6.43-4.53-3.47.45.43-4.54zm7.32-5.37-3.41.43 1.31-13.67 3.47-.41-1.31 13.65 20.56-2.57 2.72-27.12-31.11 3.49.44-4.61 34.54-3.79-3.19 31.62-3.31.41-.45 4.49-20.68 2.63.44-4.54z"/>
  <path class="cls-38" d="m391.1 203.46.46-4.44-3.28.42 4.64-44.92 3.35-.35-4.67 44.85 3.32-.42-.46 4.44 26.15-3.38.48-4.38 3.22-.41 4.87-44.16 3.23-.34-4.89 44.09-3.14.4-.48 4.38-3.22.42-.48 4.37-26.26 3.45.46-4.43-3.32.43zm7.09-5.29.47-4.44-3.26.41 4.22-40.34 3.33-.35-4.24 40.28 19.64-2.46 4.35-39.9 3.25-.34-4.37 39.84-3.16.4-.48 4.4-19.75 2.51z"/>
  <path class="cls-38" d="m438.86 149.7 3.2-.34-5.92 52.58-3.18.42zm6.4-.71 3.18-.34-2 17.59 6.32-.72.5-4.37 3.09-.35.51-4.37 3.14-.34.51-4.37 3.13-.34.51-4.38 12.47-1.32-.52 4.35-12.42 1.34-.51 4.37-3.13.34-.51 4.37-3.14.35-1.01 8.73-12.63 1.47 2.49-22zm-2.99 26.38 12.62-1.5-.5 4.34 3.13-.38-.5 4.33 3.12-.38-.5 4.32 3.1-.39-.51 4.3 3.09-.39-.51 4.29 6.15-.8-.51 4.27-6.15.81.51-4.28-3.09.4.5-4.3-3.1.39.5-4.31-3.11.39.5-4.32-3.13.38.5-4.34-9.44 1.14-2.47 21.72-3.16.42 2.96-26.12zm21.47 1.72-3.11.38.51-4.33-3.12.37 1.01-8.7 3.07-.35.51-4.35 3.12-.35.51-4.35 9.34-1.03-.52 4.33-9.29 1.04-.51 4.35-3.11.36-1.01 8.69 3.11-.37-.51 4.33 3.1-.37-.51 4.31 3.09-.38-.51 4.3 3.08-.38-.51 4.28-3.07.39.51-4.29-3.09.39.51-4.3-3.1.38.51-4.32z"/>
  <path class="cls-38" d="m482.79 145.03 36.12-3.81-.54 4.26-33.04 3.56-5.18 42.9 32.86-4.25-.53 4.18-35.88 4.72 6.2-51.56zm22.07 14.54-.53 4.26-18.07 2.1 1.57-12.9 29.97-3.29-.54 4.24-26.92 3.02-.52 4.29zm-19.12 10.65 18.06-2.14-.53 4.24-15.01 1.81-1.04 8.53 26.83-3.36-.53 4.2-29.84 3.8 2.07-17.08z"/>
 </g>
</svg>
