<svg width="621.3" height="1001.5" data-name="Ebene 1" version="1.1" viewBox="0 0 621.3 1001.5" xmlns="http://www.w3.org/2000/svg" xmlns:xlink="http://www.w3.org/1999/xlink">
 <defs>
  <style>.cls-1 {
        fill: #3a3938;
      }

      .cls-1, .cls-2, .cls-3, .cls-4, .cls-5, .cls-6, .cls-7, .cls-8, .cls-9, .cls-10, .cls-11, .cls-12, .cls-13, .cls-14, .cls-15, .cls-16, .cls-17, .cls-18, .cls-19, .cls-20, .cls-21, .cls-22, .cls-23, .cls-24, .cls-25, .cls-26, .cls-27, .cls-28, .cls-29, .cls-30, .cls-31, .cls-32, .cls-33, .cls-34 {
        stroke-miterlimit: 10;
      }

      .cls-1, .cls-2, .cls-3, .cls-5, .cls-7, .cls-9, .cls-10, .cls-11, .cls-13, .cls-14, .cls-15, .cls-17, .cls-18, .cls-19, .cls-20, .cls-21, .cls-22, .cls-23, .cls-25, .cls-26, .cls-27, .cls-28, .cls-30, .cls-31, .cls-32, .cls-33, .cls-34 {
        stroke: #000;
      }

      .cls-1, .cls-4, .cls-6, .cls-8, .cls-12, .cls-16, .cls-17, .cls-18, .cls-20, .cls-23, .cls-24, .cls-25, .cls-28, .cls-29, .cls-32 {
        stroke-width: 1.44px;
      }

      .cls-2 {
        stroke-width: 1.4px;
      }

      .cls-2, .cls-27 {
        fill: #6a6b6a;
      }

      .cls-35, .cls-36, .cls-37, .cls-38, .cls-39 {
        stroke-width: 0px;
      }

      .cls-35, .cls-4, .cls-6, .cls-12, .cls-24 {
        fill: #979696;
      }

      .cls-36 {
        fill: url(#Unbenannter_Verlauf_352);
        filter: url(#drop-shadow-1);
      }

      .cls-3 {
        stroke-width: .72px;
      }

      .cls-3, .cls-19, .cls-28 {
        fill: #fff;
      }

      .cls-4 {
        stroke: url(#Unbenannter_Verlauf_219-7);
      }

      .cls-5, .cls-10, .cls-15, .cls-31, .cls-34 {
        stroke-width: .83px;
      }

      .cls-5, .cls-21 {
        fill: #fbfbfb;
      }

      .cls-6 {
        stroke: url(#Unbenannter_Verlauf_219-5);
      }

      .cls-7 {
        fill: #52c3f1;
        stroke-width: 1.83px;
      }

      .cls-8 {
        fill: #606060;
        stroke: url(#Unbenannter_Verlauf_219);
      }

      .cls-9, .cls-11, .cls-13, .cls-14, .cls-21 {
        stroke-width: .82px;
      }

      .cls-9, .cls-34 {
        fill: #9c9d9d;
      }

      .cls-10, .cls-14 {
        fill: #c8c8c8;
      }

      .cls-11, .cls-15 {
        fill: #999a9a;
      }

      .cls-12 {
        stroke: url(#Unbenannter_Verlauf_219-6);
      }

      .cls-13, .cls-31 {
        fill: #b3b3b3;
      }

      .cls-16 {
        fill: #dedede;
        stroke: url(#Unbenannter_Verlauf_219-3);
      }

      .cls-17 {
        fill: #010200;
      }

      .cls-18 {
        fill: #6c6d6d;
      }

      .cls-19 {
        stroke-width: 1.55px;
      }

      .cls-20 {
        fill: #000e1f;
      }

      .cls-22 {
        fill: #2f302e;
        stroke-width: 2.03px;
      }

      .cls-23 {
        fill: url(#Unbenannter_Verlauf_354);
      }

      .cls-24 {
        stroke: url(#Unbenannter_Verlauf_219-4);
      }

      .cls-25 {
        fill: #545453;
      }

      .cls-26 {
        stroke-width: .28px;
      }

      .cls-26, .cls-32 {
        fill: #1d1d1b;
      }

      .cls-27, .cls-33 {
        stroke-width: 1.18px;
      }

      .cls-29 {
        fill: #8d8e8e;
        stroke: url(#Unbenannter_Verlauf_219-2);
      }

      .cls-30 {
        fill: #85bae6;
        stroke-width: 1.57px;
      }

      .cls-33 {
        fill: #7a7a7a;
      }</style>
  <linearGradient id="Unbenannter_Verlauf_354" x1="424.13" x2="514.15" y1="293.71" y2="875.82" data-name="Unbenannter Verlauf 354" gradientUnits="userSpaceOnUse">
   <stop stop-color="#949494" offset="0"/>
   <stop stop-color="#1d1d1b" offset=".28"/>
  </linearGradient>
  <radialGradient id="Unbenannter_Verlauf_219" cx="551.87" cy="542.4" r="72.21" data-name="Unbenannter Verlauf 219" gradientUnits="userSpaceOnUse">
   <stop stop-color="#1d1d1b" offset="0"/>
   <stop stop-color="#1d1d1b" offset=".39"/>
   <stop stop-color="#1d1d1b" offset="1"/>
  </radialGradient>
  <radialGradient id="Unbenannter_Verlauf_219-2" cx="540.34" cy="541.69" r="67.42" data-name="Unbenannter Verlauf 219" gradientTransform="matrix(.95 0 0 1 36.76 .18)" xlink:href="#Unbenannter_Verlauf_219"/>
  <radialGradient id="Unbenannter_Verlauf_219-3" cx="545.35" cy="531.63" r="57.91" data-name="Unbenannter Verlauf 219" gradientTransform="matrix(.96 0 0 1.09 26.72 -37.68)" xlink:href="#Unbenannter_Verlauf_219"/>
  <radialGradient id="Unbenannter_Verlauf_219-4" cx="536.43" cy="516.83" r="19.27" data-name="Unbenannter Verlauf 219" gradientTransform="matrix(1,0,0,1.13,0,-66.87)" xlink:href="#Unbenannter_Verlauf_219"/>
  <radialGradient id="Unbenannter_Verlauf_219-5" cx="566.12" cy="509.14" r="20.92" data-name="Unbenannter Verlauf 219" gradientTransform="matrix(.96 0 0 1.08 20.79 -34.56)" xlink:href="#Unbenannter_Verlauf_219"/>
  <linearGradient id="Unbenannter_Verlauf_352" x1="557.73" x2="576.29" y1="513.72" y2="513.72" data-name="Unbenannter Verlauf 352" gradientUnits="userSpaceOnUse">
   <stop stop-color="#01a8d4" offset="0"/>
   <stop stop-color="#0babd7" offset=".07"/>
   <stop stop-color="#2ab5e2" offset=".32"/>
   <stop stop-color="#40bdea" offset=".56"/>
   <stop stop-color="#4dc1ef" offset=".79"/>
   <stop stop-color="#52c3f1" offset="1"/>
  </linearGradient>
  <filter id="drop-shadow-1" filterUnits="userSpaceOnUse">
   <feOffset dx="-.46" dy=".46"/>
   <feGaussianBlur result="blur"/>
   <feFlood flood-opacity=".44"/>
   <feComposite in2="blur" operator="in"/>
   <feComposite in="SourceGraphic"/>
  </filter>
  <radialGradient id="Unbenannter_Verlauf_219-6" cx="540.82" cy="591.11" r="12.08" data-name="Unbenannter Verlauf 219" gradientTransform="matrix(1,0,0,1.13,0,-76.48)" xlink:href="#Unbenannter_Verlauf_219"/>
  <radialGradient id="Unbenannter_Verlauf_219-7" cx="558.69" cy="588.25" r="13.09" data-name="Unbenannter Verlauf 219" gradientTransform="matrix(.96 0 0 1.08 20.79 -44.32)" xlink:href="#Unbenannter_Verlauf_219"/>
  <linearGradient id="Unbenannter_Verlauf_12" x1="187.3" x2="239.3" y1="194.3" y2="194.3" data-name="Unbenannter Verlauf 12" gradientTransform="rotate(-5.1 350.57 211.35)" gradientUnits="userSpaceOnUse">
   <stop stop-color="#356972" offset="0"/>
   <stop stop-color="#316f7c" offset="0"/>
   <stop stop-color="#2a7a8d" offset=".2"/>
   <stop stop-color="#278096" offset=".4"/>
   <stop stop-color="#26839a" offset=".6"/>
   <stop stop-color="#25859d" offset=".7"/>
   <stop stop-color="#238da7" offset=".8"/>
   <stop stop-color="#209ab8" offset=".9"/>
   <stop stop-color="#1cadcf" offset="1"/>
   <stop stop-color="#1ab7dc" offset="1"/>
  </linearGradient>
  <linearGradient id="Unbenannter_Verlauf_12-2" x1="233.5" x2="270" y1="808.5" y2="808.5" data-name="Unbenannter Verlauf 12" gradientTransform="matrix(.99604 -.088894 -.088894 -.99604 -45.574 1030.8)" xlink:href="#Unbenannter_Verlauf_12"/>
  <linearGradient id="Unbenannter_Verlauf_12-3" x1="262.3" x2="326.2" y1="809.1" y2="809.1" data-name="Unbenannter Verlauf 12" gradientTransform="matrix(.99604 -.088894 -.088894 -.99604 -45.574 1030.8)" xlink:href="#Unbenannter_Verlauf_12"/>
  <linearGradient id="Unbenannter_Verlauf_12-4" x1="317" x2="368.2" y1="809.8" y2="809.8" data-name="Unbenannter Verlauf 12" gradientTransform="matrix(.99604 -.088894 -.088894 -.99604 -45.574 1030.8)" xlink:href="#Unbenannter_Verlauf_12"/>
  <linearGradient id="Unbenannter_Verlauf_12-5" x1="364.7" x2="421.7" y1="810.6" y2="810.6" data-name="Unbenannter Verlauf 12" gradientTransform="matrix(.99604 -.088894 -.088894 -.99604 -45.574 1030.8)" xlink:href="#Unbenannter_Verlauf_12"/>
  <linearGradient id="Unbenannter_Verlauf_12-6" x1="410.7" x2="469.8" y1="811.4" y2="811.4" data-name="Unbenannter Verlauf 12" gradientTransform="matrix(.99604 -.088894 -.088894 -.99604 -45.574 1030.8)" xlink:href="#Unbenannter_Verlauf_12"/>
  <linearGradient id="Unbenannter_Verlauf_12-7" x1="463.2" x2="515.6" y1="812.9" y2="812.9" data-name="Unbenannter Verlauf 12" gradientTransform="matrix(.99604 -.088894 -.088894 -.99604 -45.574 1030.8)" xlink:href="#Unbenannter_Verlauf_12"/>
  <linearGradient id="linearGradient88" x1="187.3" x2="239.3" y1="194.3" y2="194.3" gradientTransform="rotate(-5.1 299.92 1530.6)" gradientUnits="userSpaceOnUse" xlink:href="#Unbenannter_Verlauf_12"/>
 </defs>
 <g transform="translate(-117.42 .74084)">
  <polygon class="cls-17" points="708.23 415.99 537.73 331.9 165.18 381.99 346.57 462.27"/>
  <path class="cls-17" d="m682.99 614.16 17.45-2.99 36.4-190.12-388.38 52.68 31.34 176.13-1.46-.28-31.02-177.09-211.76-93.34 43.03 179.86 34.5 18.08-40.19 318.17c-.64 5.08 3.31 9.57 8.43 9.57 4.05 0 7.53-2.85 8.33-6.82l60.56-301.45 122.12 64.01-7.18 329.4c-.12 5.6 4.45 10.17 10.05 10.03 5.04-.12 9.17-4.03 9.56-9.06l25.65-330.1 113.51-19.44 42.2 193.16c.76 3.48 3.84 5.97 7.41 5.97 4.61 0 8.16-4.08 7.51-8.65l-27.81-195.49 84.52-14.47 74.61 345.63c.86 3.97 4.01 6.85 7.79 7.13 5.56.41 10.09-4.85 9.3-10.78l-46.47-349.73z"/>
 </g>
 <polygon class="cls-32" transform="translate(-117.42 .74084)" points="561.62 0 134.77 47.57 162.87 62.57 593.24 17.39"/>
 <polygon class="cls-20" transform="translate(-117.42 .74084)" points="146.26 382.95 162.87 62.57 134.77 47.57 118.17 373.37"/>
 <polygon class="cls-1" transform="translate(-117.42 .74084)" points="146.26 382.95 547.57 329.79 593.24 17.39 162.87 62.57"/>
 <polygon class="cls-28" transform="translate(-117.42 .74084)" points="531.77 312.55 574.87 34.32 177.39 75.98 165.9 359.96" fill="#fff"/>
 <polygon class="cls-25" transform="translate(-117.42 .74084)" points="543.74 38.15 510.22 301.54 532.24 313.03 575.34 34.32"/>
 <polygon class="cls-18" transform="translate(-117.42 .74084)" points="510.22 301.54 166.63 347.05 165.9 359.96 531.77 312.55"/>
 <polygon class="cls-23" transform="translate(-117.42 .74084)" points="346.92 472.5 146.26 382.95 553.32 330.75 735.29 419.82" fill="url(#Unbenannter_Verlauf_354)"/>
 <g transform="translate(-117.42 .74084)">
  <path class="cls-3" d="m595.35 396.33c0 22.32-63 44.05-142.94 44.05s-142.62-20.97-142.62-43.29 62.68-37.55 142.62-37.55 142.94 14.47 142.94 36.79z" fill="#f9f9f9"/>
  <ellipse class="cls-19" cx="452.75" cy="393.43" rx="142.97" ry="39.92" fill="#fff"/>
  <ellipse class="cls-26" cx="452.75" cy="393.43" rx="25.65" ry="7.16"/>
  <path class="cls-37" d="m509.43 389.55h.89c1.48-.08 2.37-.59 2.37-1l-.3-.17c-4.45-4.44-15.13-8.2-29.66-10.46-.59-.17-1.48-.25-2.08-.33-1.48-.25-3.26-.08-4.15.33s-.3.92 1.19 1.17c.89.08 1.48.17 2.08.25 13.05 2.01 22.54 5.36 26.69 9.46v.17c.3.33 1.78.59 2.97.59z"/>
  <path class="cls-37" d="m478.59 370.97c-1.48-.08-2.67-.25-4.15-.33-1.48-.17-3.26.17-3.56.59-.59.42.59.92 2.08 1 1.19.08 2.67.25 3.86.33 4.45.42 8.9.92 13.05 1.59 18.09 2.85 31.14 7.45 36.78 13.06 1.78 1.67 2.67 3.35 2.97 5.11.3.5 1.48.84 3.26.84 1.48-.08 2.97-.42 2.97-.92-.3-1.84-1.48-3.68-3.26-5.52-6.23-6.03-20.46-10.96-40.04-13.98-4.45-.75-9.19-1.34-13.94-1.76z"/>
  <path class="cls-37" d="m569.94 384.28h.89c1.48-.08 2.37-.59 2.08-1.17-8.3-8.12-26.99-15.15-52.2-19.75-4.75-.84-9.49-1.59-14.53-2.26-1.78-.17-3.56 0-4.15.42-.59.5 0 1 1.48 1.17 4.75.67 9.19 1.34 13.64 2.18 24.02 4.44 41.82 11.13 49.83 18.83.59.33 1.78.59 2.97.59z"/>
  <path class="cls-37" d="m507.06 368.12c-1.48-.25-3.26-.17-4.15.25s-.59.92.89 1.17c18.98 3.26 33.22 8.03 40.93 13.98 3.86 2.93 5.93 6.03 6.23 9.12 0 .5 1.19.84 2.97.84s2.97-.42 3.26-.84c0-3.35-2.37-6.61-6.52-9.71-8.3-6.28-23.43-11.38-43.6-14.81z"/>
  <path class="cls-37" d="m347.79 393.9c0 3.35 2.37 6.61 6.52 9.71 8.3 6.28 23.43 11.38 43.6 14.81.3.08.89.08 1.48.08 1.19 0 2.08-.17 2.67-.42.89-.42.59-.92-.89-1.17-18.98-3.26-33.22-8.03-40.93-13.98-3.86-2.93-5.93-6.03-6.23-9.12 0-.5-1.19-.84-2.97-.84s-2.97.42-3.26.92z"/>
  <path class="cls-37" d="m394.65 396.91c-1.48.08-2.37.59-2.37 1.09l.3.17c4.45 4.44 15.13 8.2 29.66 10.46.59.17 1.48.25 2.08.33.59.08.89.08 1.48.08 1.19 0 2.08-.17 2.67-.5.59-.42 0-.92-1.48-1.17-.59-.08-1.19-.17-1.78-.25-13.05-2.01-22.54-5.36-26.69-9.46v-.17c-.59-.42-2.37-.75-3.86-.59z"/>
  <path class="cls-37" d="m453.72 353.51h-.28c22.77.05 45.35 1.69 66.08 4.82 33.22 5.02 57.24 13.39 67.92 23.6 10.68 10.13 6.82 20.92-10.97 30.21-17.8 9.37-47.45 16.15-83.64 19.17-13.35 1.09-26.99 1.67-40.34 1.67-23.13 0-46.27-1.67-67.03-4.85-33.22-5.02-57.24-13.39-67.92-23.6-3.89-3.69-5.79-7.46-5.8-11.21 0 .09-.02.17-.02.26 0 22.13 63.58 40.07 142 40.07s142-17.94 142-40.07-63.58-40.07-142-40.07z"/>
  <path class="cls-37" d="m426.09 415.58c1.48.08 2.67.25 4.15.33h.89c1.48 0 2.67-.25 2.97-.59.59-.5-.59-.92-2.08-1.09-1.19-.08-2.67-.25-3.86-.33-4.45-.42-8.9-.92-13.05-1.59-18.09-2.85-31.14-7.45-36.78-13.06-1.78-1.67-2.67-3.35-2.97-5.11-.3-.5-1.78-.84-3.26-.84-1.78.08-2.97.42-2.97.92.3 1.84 1.48 3.68 3.26 5.52 6.23 6.03 20.46 10.96 39.74 14.06 4.45.75 9.19 1.34 13.94 1.76z"/>
  <path class="cls-37" d="m384.57 422.94c4.75.84 9.49 1.59 14.53 2.26.3.08.89.08 1.19.08 1.19 0 2.08-.17 2.67-.5.59-.42 0-.92-1.48-1.09-4.75-.67-9.19-1.34-13.64-2.18-24.02-4.44-41.82-11.13-49.83-18.83-.59-.5-2.37-.75-3.86-.59s-2.67.67-2.08 1.09c8.6 8.12 26.99 15.15 52.5 19.75z"/>
  <g stroke="#000">
   <path class="cls-34" d="m503.07 399.17v13.25s4.4 4.05 8.64 4.92c4.25.87 14.24.53 14.24.53l115.85-4.08s14.24-.97 18.9-5.54 3.84-5.34 3.84-5.34l.92-14.68s-.08-1.55-.86-2.84-1.48-1.95-1.48-1.95z" fill="#9c9d9d"/>
   <path class="cls-31" d="m637.42 376.62-122.97 13.09s-10.54 1.17-11.37 8.36c-.82 7.19 36.02 5.4 36.02 5.4l109.14-3.79s16.36-2.06 16.3-12.84c-.08-13.32-27.12-10.21-27.12-10.21z"/>
   <path class="cls-5" d="m636.6 378.94-119.82 12.95s-9.04.34-9.04 6.18c0 4.59 25.09 3.5 25.09 3.5l114.41-4.21s13.32-1.15 13.46-10.73-24.1-7.69-24.1-7.69z"/>
   <ellipse class="cls-15" cx="643.3" cy="386.92" rx="7.86" ry="4.4"/>
   <ellipse class="cls-10" cx="643.3" cy="386.92" rx="3.34" ry="1.87"/>
   <path class="cls-9" d="m387.99 389.1v13.13s-4.43 4.02-8.7 4.88-14.34.52-14.34.52l-116.65-4.04s-14.34-.96-19.03-5.49-3.86-5.29-3.86-5.29l-.93-14.55s.08-1.54.87-2.82 1.49-1.93 1.49-1.93z"/>
   <path class="cls-13" d="m252.71 366.75 123.82 12.97s10.62 1.16 11.44 8.28c.83 7.13-36.26 5.35-36.26 5.35l-109.89-3.76s-16.48-2.05-16.41-12.73c.08-13.2 27.3-10.12 27.3-10.12z"/>
   <path class="cls-21" d="m253.54 369.04 120.65 12.83s9.1.34 9.1 6.12c0 4.55-25.27 3.47-25.27 3.47l-115.2-4.17s-13.41-1.14-13.55-10.64 24.27-7.62 24.27-7.62z" fill="#fff"/>
   <ellipse class="cls-11" cx="246.8" cy="376.95" rx="7.91" ry="4.36"/>
   <ellipse class="cls-14" cx="246.8" cy="376.95" rx="3.36" ry="1.85"/>
   <path class="cls-8" d="m496.55 493.09v116.32c0 10.64 8.38 18.81 18.19 17.52l62.41-8.22c12.38-1.63 22.24-12.25 23.04-25.09l6.95-111.99c.91-14.73-9.99-25.3-24.14-23.73l-62.98 6.96c-12.83 1.42-23.47 14.39-23.47 28.23z" fill="#606060"/>
   <path class="cls-29" d="m503.07 495.78v107.03c0 9.63 8.33 18.62 16.82 17.71l54.56-7.46c11.08-1.21 19.96-10.82 20.69-22.74l6.49-105.46c.85-13.76-9-23.54-21.73-21.96l-56.48 6.99c-11.15 1.38-20.35 13.27-20.35 25.88z" fill="#8d8e8e"/>
   <path class="cls-16" d="m509.81 498.35-.89 99.25c-.08 9 7.2 17.44 14.71 16.62l48.21-6.78c9.78-1.09 17.65-10.05 18.33-21.16l6-97.63c.78-12.64-7.81-21.64-18.94-20.24l-49.42 6.22c-9.76 1.23-17.91 12.12-18.01 23.72z" fill="#dedede"/>
   <g fill="#979696">
    <path class="cls-24" d="m546.77 494.63-21.34 2.14c-1.7.17-2.99 1.6-2.99 3.3v35.66c0 1.96 1.68 3.49 3.63 3.3l20.48-1.94c1.67-.16 2.96-1.54 3-3.22l.86-35.86c.05-2-1.66-3.58-3.65-3.38z"/>
    <path class="cls-6" d="m578.13 491.3-23.52 2.35c-1.65.16-2.91 1.53-2.96 3.19l-.91 36.14c-.05 1.97 1.63 3.54 3.59 3.35l22.58-2.11c1.62-.15 2.89-1.47 2.97-3.1l1.85-36.38c.1-2.01-1.61-3.63-3.61-3.43z"/>
    <path class="cls-12" d="m547.16 577.51-13.08 1.31c-1.04.1-1.83.98-1.83 2.02v21.85c0 1.2 1.03 2.14 2.23 2.02l12.55-1.19c1.03-.1 1.82-.95 1.84-1.98l.53-21.97c.03-1.22-1.02-2.19-2.24-2.07z"/>
    <path class="cls-4" d="m566.37 575.47-14.41 1.44c-1.01.1-1.79.94-1.81 1.95l-.55 22.14c-.03 1.21 1 2.17 2.2 2.05l13.83-1.29c1-.09 1.77-.9 1.82-1.9l1.13-22.29c.06-1.23-.98-2.23-2.21-2.1z"/>
   </g>
  </g>
 </g>
 <path class="cls-35" d="m474.99 539.51s-.9 10.67-7.13 10.67c-2.49 0-4.06 1.07-5.05 2.36-1.78 2.32-1.67 5.55-.09 8.01.83 1.29 2.26 1.96 4.06 2.09 4.01.28 6.66 8.42 6.66 8.42"/>
 <g transform="translate(-117.42 .74084)" stroke="#000">
  <path class="cls-33" d="m692.19 501.09-24.77 3.87c-3.9 0.61-6.56-1.79-5.9-5.4l7.46-40.98c0.73-4.03 4.71-7.68 8.84-8.1l26.2-2.67c3.88-0.4 6.27 2.46 5.38 6.35l-9.12 39.59c-0.8 3.49-4.41 6.76-8.09 7.34z"/>
  <path class="cls-22" d="m722.4 464.17-32.62 0.63c-0.75-0.32-1.56-0.5-2.42-0.5-4.87 0-9.62 5.36-10.69 11.96-1.07 6.59 1.93 12.07 6.75 12.25 0.88 0.03 1.75-0.12 2.61-0.42l30.93 2.54 5.45-26.47z"/>
  <path class="cls-27" d="m710.01 477.01c-1.23 7.62 2.23 13.95 7.8 14.16 5.66 0.21 11.35-5.95 12.63-13.78 1.29-7.84-2.36-14.21-8.07-14.21s-11.12 6.2-12.36 13.83z"/>
  <path class="cls-2" d="m713.43 477.82c-1.47 9.06 2.65 16.6 9.27 16.84 6.73 0.25 13.5-7.08 15.02-16.39 1.53-9.33-2.81-16.9-9.6-16.9s-13.23 7.37-14.7 16.45z"/>
  <path class="cls-30" d="m339.27 503.17c0.77 8.24-3.12 14.75-8.69 14.85s-11.14-6.3-12.38-14.64c-1.3-8.73 2.57-16.11 8.67-16.11s11.6 7.28 12.4 15.9z"/>
  <path class="cls-7" d="m334.21 503.77c0.88 9.75-3.58 17.45-9.95 17.58-6.42 0.13-12.77-7.46-14.19-17.33-1.49-10.33 2.95-19.07 9.94-19.07s13.29 8.62 14.21 18.82z"/>
 </g>
 <g stroke-width="0px">
  <path class="cls-40" d="m77.926 218.72 2.5-24.3c0.3-3.2 0.4-5.2 0.1-6s-1-1.4-2.4-1.8c-2-0.6-2.8-1.9-2.6-3.9s0.7-2.5 1.6-3.4c0.9-0.8 2.2-1.3 3.8-1.5s1.9-0.1 4-0.3l2-0.2c3.7-0.4 5.9-0.7 6.6-0.8s3-0.6 6.9-1.5c1.3-0.3 2.5-0.5 3.6-0.6 3.7-0.4 6.8 0.3 9.5 2.1 4.6 3.1 6.4 8.5 5.6 16.3-0.7 6.3-3 11.5-6.8 15.6-3.6 3.9-7.8 6-12.4 6.5s-2.6 0.2-4.3 0.1h-1.7c-0.6 0-1 0.6-1.1 1.6v0.3l-0.6 7.5c-0.1 1.5 0 2.5 0.2 3.2 0.3 0.7 0.9 1.3 1.9 2 1.3 0.9 1.9 2 1.8 3.2-0.2 1.9-1.4 3.5-3.7 4.8-2.2 1.3-5.3 2.1-9.2 2.5-8.2 0.9-12.2-0.6-11.8-4.4s0.3-1.6 0.7-2.2 1.3-1.3 2.7-2.4c0.9-0.7 1.4-1.5 1.7-2.6s0.7-4.4 1.3-10.1zm18.2-31.8-1.6 15.8c-0.1 1.2 0 1.9 0.3 2.1 0.6 0.4 1.4 0.5 2.4 0.4 1.5-0.2 2.8-0.9 3.9-2.1 1.6-1.8 2.6-4.6 3-8.5s-0.1-6.8-1.6-8.5c-1-1-2.2-1.5-3.7-1.3s-2.6 0.9-2.7 2.1z" fill="url(#linearGradient88)"/>
  <path class="cls-39" d="m138.03 170.72c2.5-0.3 4.9-0.2 7 0.2 2.9 0.5 4.2 2.2 3.9 4.9s-0.3 1.6-0.7 2.1c-0.3 0.5-1.2 1.2-2.5 2.2-1.1 0.8-1.9 2.4-2.5 4.9-0.6 2.4-1.3 7.1-2.1 14-1.3 11.7-2 18.8-1.9 21.5 0 0.9 0.2 1.5 0.5 1.9s0.8 0.9 1.5 1.3c1.3 0.8 1.9 2 1.7 3.7s-1.8 4.2-4.6 5.4c-3 1.3-6.6 2.2-10.8 2.6-7.1 0.8-10.5-0.7-10.1-4.4s1-2.7 2.5-4c1.2-1 2-2.3 2.3-3.9 0.8-3.5 1.8-10.9 3.1-22.2 0.9-7.9 1.2-12.9 0.8-15-0.2-1.2-0.8-2.3-1.8-3.2-0.8-0.7-1.4-1.4-1.6-1.9-0.3-0.5-0.3-1.2-0.2-2.1 0.1-1.3 0.7-2.4 1.7-3.3s2.7-1.8 5.1-2.6c2.9-1.1 5.7-1.7 8.6-2z" fill="url(#Unbenannter_Verlauf_12-2)"/>
  <path class="cls-42" d="m169.73 170.62 13.8 18.4c1.3 1.7 2.3 2.5 2.9 2.4 1.1-0.1 1.9-1.9 2.3-5.2s0.7-6.5 0.5-7.8c-0.1-1.4-0.7-2.4-1.7-3-0.8-0.5-1.3-1.1-1.6-1.7s-0.3-1.5-0.2-2.5c0.3-2.6 1.8-4.4 4.4-5.4 1.1-0.4 2.9-0.7 5.4-1s5.5-0.3 6.7 0.1c1.9 0.7 2.7 2.2 2.4 4.6s-1.3 3.6-3 4.8c-0.7 0.5-1.2 0.9-1.5 1.2s-0.5 0.8-0.8 1.4c-0.8 2.1-1.6 5.9-2.4 11.5l-1.9 14.8c-0.3 2.3-0.7 5.4-1.2 9.3-0.7 5.3-1.4 9.1-2.1 11.5-1 3-2.2 4.5-3.7 4.7s-1.2 0-1.7-0.4c-0.4-0.3-1.1-1.1-2.1-2.4l-16.3-21.9c-1.1-1.6-2.2-2.3-3.1-2.2-1.3 0.1-2.3 2.8-2.9 7.9s-0.7 7.1-0.5 8.6 0.7 2.6 1.7 3.2c1.3 0.8 1.9 2.1 1.7 3.6-0.5 4.2-4 6.6-10.5 7.3s-5.1 0-6.6-0.8c-1.5-0.9-2.1-2.3-1.9-4.3s0.4-1.8 0.7-2.4c0.4-0.5 1.1-1.3 2.3-2.3 1.1-1 1.9-2.5 2.4-4.7 0.8-3.9 1.7-9.6 2.6-17 0.9-7.9 1.3-13.6 1.1-17.2 0-1.3-0.3-2.3-0.6-2.9s-0.8-1.2-1.6-1.7c-0.9-0.6-1.5-1.2-1.8-1.8s-0.4-1.4-0.3-2.3c0.3-3 2.4-5 6.1-6.2 1.3-0.4 3.4-0.7 6.5-1s3-0.1 3.8 0.2 1.6 1.1 2.5 2.3z" fill="url(#Unbenannter_Verlauf_12-3)"/>
  <path class="cls-44" d="m234.43 161.02c2.4-0.2 4.8-0.2 7.2 0.2 2 0.3 3.3 0.8 4.1 1.6s1 1.9 0.8 3.4-0.4 1.7-0.8 2.3-1.2 1.3-2.4 2.2c-1.4 1-2.2 2.2-2.6 3.4s-1.2 6-2.5 14.3c-1.2 8-1.9 12.8-2.2 14.4s-0.6 3.2-1 4.7c-1.2 4.4-2.9 8-5.1 10.7-1.8 2.2-4 4-6.5 5.4s-5.2 2.3-7.8 2.6-4.7 0-6.9-0.5-4.2-1.6-5.7-2.9c-1.3-1.1-2.2-2.7-2.8-4.7s-0.7-4.3-0.4-6.7 1.4-5.6 3-7.7 3.4-3.3 5.5-3.5 3.6 0.4 4.8 1.9 1.6 3.5 1.3 6-0.4 1.7-0.8 3.2c0 0.3-0.1 0.6-0.2 1-0.1 1 0 1.7 0.4 2.3 0.4 0.5 1 0.8 1.8 0.7 1.4-0.2 2.7-1.2 3.8-3.1s1.9-4.3 2.3-7.3l0.5-4.1 1.4-11.1c0.7-6.7 1.1-10.7 1.2-11.9 0-1.2 0-2.1-0.3-2.9-0.2-0.6-0.5-0.9-0.7-1.1s-0.9-0.4-1.9-0.7c-0.5-0.1-0.9-0.5-1.2-1.1-0.3-0.7-0.4-1.4-0.3-2.2 0.2-1.7 0.9-3 1.9-4.1s2.7-2 4.8-2.9c2.4-0.9 4.8-1.5 7.3-1.7z" fill="url(#Unbenannter_Verlauf_12-4)"/>
  <path class="cls-38" d="m292.33 178.42-1.6 11c-1 6.6-2 11.3-3.1 14.1-2.3 5.9-6.2 10.4-11.6 13.5-3.3 1.9-6.9 3.1-10.7 3.5-6.7 0.7-11.8-0.9-15.2-5-1.7-2-2.7-4.5-3-7.3s-0.1-7.1 0.7-12.7 0.9-5.8 1.7-10.9c0.6-3.6 0.9-5.9 1.1-7.1 0.4-2.5 0.5-4.2 0.3-5.2-0.1-0.9-0.6-1.8-1.4-2.6-1.2-1.2-1.7-2.6-1.5-4.2s0.7-2.3 1.5-3.3 1.9-1.7 3.1-2.2c2.4-0.9 5.3-1.5 8.5-1.8s6.4-0.3 8.6 0.3c2.2 0.5 3.1 2 2.7 4.6s-0.7 2.3-1.4 3.2c-0.2 0.2-0.9 0.7-2.1 1.6-0.7 0.5-1.3 1.3-1.7 2.5-0.4 1.1-0.8 3-1.2 5.6s-1.3 8.3-2.7 17c-0.8 5.2-0.4 9 1.2 11.4 1.4 2 3.4 2.9 6 2.6s3.3-0.8 4.8-1.8 2.7-2.3 3.6-3.9c0.7-1.2 1.3-2.6 1.7-4 0.4-1.5 0.8-3.4 1.2-5.9l1.5-9.9c1-7.6 1.5-12.1 1.5-13.4s-0.5-2.3-1.6-2.9c-1-0.6-1.7-1.1-2-1.7-0.3-0.5-0.4-1.2-0.3-2.1 0.3-1.8 1.2-3.2 2.9-4.2 1.6-1 4.1-1.6 7.5-2s5.6-0.2 6.9 0.5 1.9 1.9 1.6 3.7-0.4 1.5-0.7 2-1.1 1.2-2.3 2.2c-1.3 1-2 2.1-2.3 3.1-0.3 1.1-1 4.9-2 11.6z" fill="url(#Unbenannter_Verlauf_12-5)"/>
  <path class="cls-43" d="m336.73 163.82-4.1 5c-1.5 1.8-2.3 3.4-2.6 4.8s0 1.5 0 2.2c0.2 0.7 0.5 1.7 1.1 2.9l8.5 18c0.7 1.6 1.3 2.6 1.6 3s0.8 0.8 1.5 1.2c1 0.6 1.7 1.2 2 2s0.4 1.8 0.2 3.1c-0.5 3.1-2.3 4.8-5.4 5.2l-11.6 1.3c-0.8 0-1.4 0-1.8-0.5s-0.9-1.6-1.6-3.5c-1.1-3-2.7-6.4-4.6-10.2-0.9-1.7-1.5-2.7-1.9-3.2s-0.8-0.7-1.2-0.7c-1.2 0.1-2.1 1.8-2.6 5-0.4 2.6-0.3 4.4 0.3 5.3 0.1 0.1 0.4 0.4 0.8 0.9 1 0.9 1.3 2.1 1.1 3.7s-1.4 3.4-3.4 4.5c-1.9 1-5.1 1.8-9.4 2.3-3.8 0.4-6.6 0.4-8.2 0-0.7-0.2-1.2-0.7-1.6-1.4-0.3-0.7-0.4-1.6-0.3-2.6 0.2-1.6 1.1-3 2.5-4.2 0.6-0.6 1.1-1.2 1.5-1.9s0.7-1.8 1.2-3.3c0.9-3.4 1.9-8.6 3-15.6 1.3-8.4 2-14.3 2.1-17.8 0-1.4 0-2.4-0.2-3s-0.6-1.2-1.3-1.7c-1-0.8-1.4-2.1-1.1-3.9s0.8-2.7 1.6-3.6c0.9-1 2.1-1.7 3.8-2.4 2.2-0.8 5-1.4 8.2-1.7s5.7-0.1 7.1 0.6c1.3 0.7 1.8 2.1 1.4 4.3s-0.4 1.6-0.7 2.1-1 1.4-2.1 2.5c-0.4 0.5-0.9 1.5-1.4 3.1s-0.9 3.2-1.2 4.7c-0.4 2.5-0.2 3.7 0.6 3.7s1-0.4 1.5-1 1.7-2.2 3.4-4.8c2-3 3.1-4.9 3.2-6s0-1.3-0.2-2.4c-0.2-0.7-0.2-1.4 0-2 0.4-2.2 1.4-3.9 3.2-5s4.7-1.8 8.7-2.2 5.5-0.3 6.9 0.2c1.8 0.6 2.4 2.1 2 4.5s-0.5 1.9-1 2.7c-0.5 0.9-1.1 1.4-1.7 1.7-0.5 0.3-1.5 0.5-3.1 0.7-1.1 0.1-2 0.4-2.6 0.8s-1.4 1.2-2.5 2.5z" fill="url(#Unbenannter_Verlauf_12-6)"/>
  <path class="cls-41" d="m361.83 149.22 15.8-1.6c3.2-0.3 5.5-0.7 7-1s3-0.9 4.5-1.6c0.5-0.2 0.8-0.3 1.1-0.4 1.1-0.1 1.9 0.6 2.4 2.2 0.9 2.6 1 5.8 0.3 9.6s-0.9 3.5-1.6 4.7c-0.8 1.2-1.6 1.8-2.6 1.9s-1.2 0-1.5-0.4-0.7-1.2-1-2.5c-0.6-1.9-1.5-3.1-2.7-3.7s-3.5-0.6-6.6-0.3c-2.4 0.2-3.9 1-4.6 2.3-0.4 0.7-0.7 1.6-0.9 2.7s-0.7 3.9-1.5 8.5-0.3 2.9 0 3.3 1.4 0.5 3.1 0.3 1.5-0.4 2-1 0.9-1.5 1.2-2.9c0.4-1.7 0.8-2.9 1-3.6 0.3-0.7 0.6-1.2 1.1-1.8s1.1-0.9 1.6-1c0.8 0 1.5 0.4 1.8 1.5 0.3 0.8 0.4 2.3 0.3 4.5s-0.3 4.4-0.7 6.8c-0.8 4.7-1.9 8.5-3.5 11.6-0.8 1.7-1.8 2.6-2.9 2.7s-1.1-0.1-1.3-0.6-0.2-1.5 0-3.1c0.3-3.3-0.8-4.8-3.2-4.6s-1.6 0.6-2.1 1.5-0.9 2.5-1.3 4.7-0.5 3.2-0.7 5.3c-0.2 2.2-0.3 3.6-0.3 4.3 0 0.9 0.4 1.4 1.2 1.7s2.2 0.3 4.1 0c3-0.3 5.4-1.1 7.2-2.4 1.7-1.3 3.3-3.5 4.8-6.5 0.9-1.8 1.6-3 2.1-3.6 0.6-0.6 1.2-1 1.9-1.1s1.5 0.4 1.8 1.4c0.4 1 0.4 2.3 0.1 3.9s-1 4-2.1 6.7-2.3 5.1-3.5 7.2c-0.6 1-1.1 1.7-1.5 2.1s-0.8 0.6-1.2 0.6h-1.6c-1.2-0.2-2.9-0.2-5.1 0l-25.8 2.8c-1 0.1-1.8-0.1-2.3-0.7s-0.6-1.5-0.4-2.7 0.4-1.5 0.7-1.9 0.9-1 1.9-1.6c0.7-0.4 1.2-1 1.6-1.6s0.8-1.4 1.1-2.5c1.4-4.5 2.7-10.6 4-18.1 1.9-11.5 2.6-18.7 2.1-21.6-0.1-0.6-0.3-1-0.5-1.2s-0.7-0.4-1.4-0.7c-1.1-0.4-1.5-1.5-1.2-3.2s0.5-1.8 1-2.6 1.1-1.3 1.8-1.6c0.8-0.4 2.4-0.6 4.7-0.9z" fill="url(#Unbenannter_Verlauf_12-7)"/>
 </g>
</svg>
